STARTFONT 2.1
FONT -Monotype-Century Schoolbook-Regular-I-Normal--25-180-100-100-P-130-iso8859-4
SIZE 18 100 100
FONTBOUNDINGBOX 30 31 -4 -6

STARTPROPERTIES 24
FOUNDRY "Monotype"
FAMILY_NAME "Century Schoolbook"
WEIGHT_NAME "Regular"
SLANT "I"
SETWIDTH_NAME "Normal"
ADD_STYLE_NAME ""
PIXEL_SIZE 25
POINT_SIZE 180
RESOLUTION_X 100
RESOLUTION_Y 100
SPACING "P"
AVERAGE_WIDTH 130
CHARSET_REGISTRY "iso8859"
CHARSET_ENCODING "4"
FACE_NAME "Century Schoolbook Italic ISO Latin4"
_DEC_DEVICE_FONTNAMES "PS=centuryschoolbook-it-lat4"
COPYRIGHT "Copyright (c) 1993 Monotype Typography Ltd."
CAP_HEIGHT 22
X_HEIGHT 14
WEIGHT 10
QUAD_WIDTH 14
DEFAULT_CHAR 160
FONT_DESCENT 6
FONT_ASCENT 25
ENDPROPERTIES

CHARS 191

STARTCHAR space
ENCODING 32
SWIDTH 278 0
DWIDTH 7 0
BBX 0 0 0 0
BITMAP
ENDCHAR

STARTCHAR exclam
ENCODING 33
SWIDTH 333 0
DWIDTH 8 0
BBX 7 19 2 0
BITMAP
06
06
0E
0E
0C
0C
0C
08
18
10
10
10
20
20
00
00
E0
E0
E0
ENDCHAR

STARTCHAR quotedbl
ENCODING 34
SWIDTH 400 0
DWIDTH 10 0
BBX 8 7 4 10
BITMAP
67
E7
E6
C6
C4
84
88
ENDCHAR

STARTCHAR numbersign
ENCODING 35
SWIDTH 606 0
DWIDTH 15 0
BBX 14 19 2 0
BITMAP
0610
0410
0430
0C30
0C30
0C20
FFFC
FFFC
0860
1860
1840
1040
FFFC
FFFC
30C0
3080
2080
2180
6180
ENDCHAR

STARTCHAR dollar
ENCODING 36
SWIDTH 556 0
DWIDTH 14 0
BBX 12 22 2 -3
BITMAP
0040
0040
03E0
04B0
08B0
08B0
0D30
0D00
0F00
0700
0380
03C0
02C0
6260
E460
E460
C440
44C0
3F00
0800
0800
1000
ENDCHAR

STARTCHAR percent
ENCODING 37
SWIDTH 833 0
DWIDTH 21 0
BBX 17 18 3 0
BITMAP
1C0200
220400
620C00
620800
C61000
C63000
C62000
CC4000
48C000
308700
010880
031880
021080
043180
0C3180
083100
101200
300C00
ENDCHAR

STARTCHAR ampersand
ENCODING 38
SWIDTH 852 0
DWIDTH 21 0
BBX 19 19 2 0
BITMAP
007800
018C00
018600
030600
030600
030C00
039800
03B000
078000
1D8FE0
31C180
71C100
E1C200
E0E600
E0E400
E07820
7038C0
79DF80
3E0E00
ENDCHAR

STARTCHAR quoteright
ENCODING 39
SWIDTH 204 0
DWIDTH 5 0
BBX 4 6 3 12
BITMAP
70
70
30
20
60
80
ENDCHAR

STARTCHAR parenleft
ENCODING 40
SWIDTH 333 0
DWIDTH 8 0
BBX 10 24 2 -5
BITMAP
0040
0180
0300
0600
0C00
1800
3800
3000
7000
6000
E000
E000
C000
C000
C000
C000
C000
C000
4000
6000
6000
2000
3000
1000
ENDCHAR

STARTCHAR parenright
ENCODING 41
SWIDTH 333 0
DWIDTH 8 0
BBX 10 24 -2 -5
BITMAP
0200
0200
0100
0180
0180
0080
00C0
00C0
00C0
00C0
00C0
00C0
00C0
01C0
0180
0180
0300
0300
0600
0600
0C00
1000
2000
C000
ENDCHAR

STARTCHAR asterisk
ENCODING 42
SWIDTH 500 0
DWIDTH 13 0
BBX 10 10 4 8
BITMAP
0C00
0C00
0C00
E5C0
F7C0
0C00
1A00
3300
3300
1100
ENDCHAR

STARTCHAR plus
ENCODING 43
SWIDTH 606 0
DWIDTH 15 0
BBX 14 14 2 1
BITMAP
0300
0300
0300
0300
0300
0300
FFFC
FFFC
0300
0300
0300
0300
0300
0300
ENDCHAR

STARTCHAR comma
ENCODING 44
SWIDTH 278 0
DWIDTH 7 0
BBX 4 7 0 -4
BITMAP
20
70
70
30
20
40
80
ENDCHAR

STARTCHAR minus
ENCODING 45
SWIDTH 606 0
DWIDTH 15 0
BBX 14 2 2 7
BITMAP
FFFC
FFFC
ENDCHAR

STARTCHAR period
ENCODING 46
SWIDTH 278 0
DWIDTH 7 0
BBX 3 3 1 0
BITMAP
E0
E0
E0
ENDCHAR

STARTCHAR slash
ENCODING 47
SWIDTH 606 0
DWIDTH 15 0
BBX 11 18 3 0
BITMAP
0060
0040
00C0
0080
0180
0100
0300
0200
0600
0400
0C00
1800
1800
3000
3000
6000
6000
C000
ENDCHAR

STARTCHAR zero
ENCODING 48
SWIDTH 556 0
DWIDTH 14 0
BBX 12 18 2 0
BITMAP
03C0
0460
0820
1830
3030
3030
7030
6070
6070
E060
E060
C0E0
C0C0
C0C0
C180
4100
6200
3C00
ENDCHAR

STARTCHAR one
ENCODING 49
SWIDTH 556 0
DWIDTH 14 0
BBX 10 17 2 0
BITMAP
00C0
0F80
0180
0180
0380
0300
0300
0300
0600
0600
0600
0600
0C00
0C00
0C00
1C00
FF80
ENDCHAR

STARTCHAR two
ENCODING 50
SWIDTH 556 0
DWIDTH 14 0
BBX 14 17 0 0
BITMAP
03F0
0618
081C
080C
0E0C
0E1C
061C
0038
0070
00C0
0300
0600
0810
1010
2020
7FE0
FFE0
ENDCHAR

STARTCHAR three
ENCODING 51
SWIDTH 556 0
DWIDTH 14 0
BBX 13 18 1 0
BITMAP
03E0
0430
0C18
0E18
0E18
0038
0030
00E0
0F00
00C0
0060
2060
F060
E060
E0E0
40C0
6180
1F00
ENDCHAR

STARTCHAR four
ENCODING 52
SWIDTH 556 0
DWIDTH 14 0
BBX 12 18 2 0
BITMAP
0010
0030
0070
00E0
01E0
0360
06C0
0CC0
18C0
31C0
6180
C180
FFE0
0380
0300
0300
0700
1FC0
ENDCHAR

STARTCHAR five
ENCODING 53
SWIDTH 556 0
DWIDTH 14 0
BBX 12 18 2 0
BITMAP
0410
0FE0
0FC0
0800
1000
1000
1000
3F00
2180
20C0
00C0
00C0
40C0
E1C0
E180
8380
C700
7C00
ENDCHAR

STARTCHAR six
ENCODING 54
SWIDTH 556 0
DWIDTH 14 0
BBX 12 18 3 0
BITMAP
03E0
0630
0C70
1870
3000
7000
7000
6700
F9C0
F0C0
E0C0
E0C0
C1C0
C1C0
C180
4380
6700
3C00
ENDCHAR

STARTCHAR seven
ENCODING 55
SWIDTH 556 0
DWIDTH 14 0
BBX 12 17 4 0
BITMAP
3FF0
7FE0
6040
4080
8100
8300
0600
0400
0C00
0800
1800
3800
3000
7000
7000
7000
6000
ENDCHAR

STARTCHAR eight
ENCODING 56
SWIDTH 556 0
DWIDTH 14 0
BBX 13 18 2 0
BITMAP
03E0
0438
0818
1808
1808
1818
0C30
0EE0
0700
1DC0
31C0
60E0
4060
C060
C060
40C0
6180
1F00
ENDCHAR

STARTCHAR nine
ENCODING 57
SWIDTH 556 0
DWIDTH 14 0
BBX 12 18 2 0
BITMAP
03C0
0C60
1C30
1830
3830
3830
3070
3070
30F0
19B0
0E60
00E0
00C0
00C0
E180
E300
C600
7800
ENDCHAR

STARTCHAR colon
ENCODING 58
SWIDTH 278 0
DWIDTH 7 0
BBX 6 12 0 0
BITMAP
1C
1C
1C
00
00
00
00
00
00
E0
E0
E0
ENDCHAR

STARTCHAR semicolon
ENCODING 59
SWIDTH 278 0
DWIDTH 7 0
BBX 7 16 0 -4
BITMAP
0E
0E
0E
00
00
00
00
00
00
20
70
70
30
20
C0
80
ENDCHAR

STARTCHAR less
ENCODING 60
SWIDTH 606 0
DWIDTH 15 0
BBX 13 13 2 2
BITMAP
0008
0038
00F0
07C0
1E00
7800
C000
7800
1E00
07C0
00F0
0038
0008
ENDCHAR

STARTCHAR equal
ENCODING 61
SWIDTH 606 0
DWIDTH 15 0
BBX 14 8 2 5
BITMAP
FFFC
FFFC
0000
0000
0000
0000
FFFC
FFFC
ENDCHAR

STARTCHAR greater
ENCODING 62
SWIDTH 606 0
DWIDTH 15 0
BBX 13 13 2 2
BITMAP
8000
E000
3C00
0F00
03C0
0078
0018
0078
03C0
0F00
7C00
E000
8000
ENDCHAR

STARTCHAR question
ENCODING 63
SWIDTH 444 0
DWIDTH 11 0
BBX 7 19 3 0
BITMAP
3C
46
42
82
86
8E
1C
38
60
C0
80
88
90
60
00
00
E0
E0
C0
ENDCHAR

STARTCHAR at
ENCODING 64
SWIDTH 747 0
DWIDTH 19 0
BBX 19 20 1 -1
BITMAP
01F800
060600
080100
100080
200080
406C40
419C40
C30840
821840
861840
841840
8C3080
8C7100
CCB220
471C40
400040
200080
100100
0E0E00
01F000
ENDCHAR

STARTCHAR A
ENCODING 65
SWIDTH 704 0
DWIDTH 18 0
BBX 18 19 -1 0
BITMAP
000400
000C00
001C00
001C00
002C00
002C00
004E00
00CE00
008E00
010E00
030E00
020600
07FE00
040700
080700
180700
100700
300700
FE1FC0
ENDCHAR

STARTCHAR B
ENCODING 66
SWIDTH 722 0
DWIDTH 18 0
BBX 18 19 0 0
BITMAP
0FFE00
018380
0381C0
0381C0
0381C0
0301C0
070180
070380
070200
07FC00
0E0600
0E0300
0C0380
0C0380
1C0380
1C0380
180700
381E00
FFF800
ENDCHAR

STARTCHAR C
ENCODING 67
SWIDTH 722 0
DWIDTH 18 0
BBX 17 19 2 0
BITMAP
01F000
070D80
0E0700
1C0300
380300
380300
700300
700100
700000
E00000
E00000
E00000
E00000
E00200
600400
700C00
300800
1C3000
07C000
ENDCHAR

STARTCHAR D
ENCODING 68
SWIDTH 778 0
DWIDTH 19 0
BBX 20 19 0 0
BITMAP
0FFF00
01C180
01C0C0
018060
038070
038070
038070
030070
070070
070070
070070
0600E0
0E00E0
0E00E0
0C01C0
0C0380
1C0700
1C0E00
FFF800
ENDCHAR

STARTCHAR E
ENCODING 69
SWIDTH 722 0
DWIDTH 18 0
BBX 18 19 1 0
BITMAP
1FFFC0
038380
030180
070080
070080
070980
060800
0E1000
0E3000
0FF000
0C7000
1C2000
1C2000
1C2100
180300
380200
380600
381E00
FFFC00
ENDCHAR

STARTCHAR F
ENCODING 70
SWIDTH 667 0
DWIDTH 17 0
BBX 19 19 0 0
BITMAP
0FFFE0
01C0E0
018060
038040
038040
030440
030400
070400
071C00
07F800
061800
0E1800
0E0800
0C1000
0C0000
1C0000
1C0000
1C0000
FF8000
ENDCHAR

STARTCHAR G
ENCODING 71
SWIDTH 778 0
DWIDTH 19 0
BBX 17 19 2 0
BITMAP
00F800
030680
0E0380
1C0380
180100
380100
700100
700000
700000
E00000
E03F80
E00600
E00E00
E00E00
600E00
700C00
301C00
186400
0F8400
ENDCHAR

STARTCHAR H
ENCODING 72
SWIDTH 833 0
DWIDTH 21 0
BBX 22 19 1 0
BITMAP
1FE3FC
0380E0
0300E0
0700E0
0700C0
0700C0
0601C0
0E01C0
0E0180
0FFF80
0C0380
1C0380
1C0300
1C0300
180700
380700
380600
380E00
FE3FC0
ENDCHAR

STARTCHAR I
ENCODING 73
SWIDTH 407 0
DWIDTH 10 0
BBX 12 19 0 0
BITMAP
0FF0
01C0
0180
0180
0380
0380
0300
0300
0700
0700
0600
0600
0E00
0E00
0C00
0C00
1C00
1C00
FF80
ENDCHAR

STARTCHAR J
ENCODING 74
SWIDTH 611 0
DWIDTH 15 0
BBX 17 18 1 1
BITMAP
007F80
000E00
001C00
001C00
001C00
001800
003800
003800
003000
003000
007000
787000
F86000
F8E000
80E000
81C000
438000
3F0000
ENDCHAR

STARTCHAR K
ENCODING 75
SWIDTH 741 0
DWIDTH 19 0
BBX 21 19 0 0
BITMAP
0FF3F8
0380E0
038180
030300
030600
070C00
071800
062000
0E7000
0FB000
0F3000
0E3800
1C1800
1C1C00
1C1C00
180E00
380600
380F00
FF3FC0
ENDCHAR

STARTCHAR L
ENCODING 76
SWIDTH 667 0
DWIDTH 17 0
BBX 15 19 1 0
BITMAP
1FF0
0380
0300
0700
0700
0700
0600
0E00
0E00
0E00
0C00
1C00
1C02
1C02
1806
3804
380C
383C
FFFC
ENDCHAR

STARTCHAR M
ENCODING 77
SWIDTH 944 0
DWIDTH 24 0
BBX 26 19 0 0
BITMAP
0FE00FC0
01600B00
01601600
03603600
02E02E00
02606E00
02604C00
06609C00
04619C00
04611C00
04731800
0C723800
08743800
087C3000
08783000
18787000
18307000
38207000
FE23FC00
ENDCHAR

STARTCHAR N
ENCODING 78
SWIDTH 815 0
DWIDTH 20 0
BBX 23 19 0 0
BITMAP
0FC0FE
03C038
01C010
036030
026020
027020
027020
063860
043840
041C40
041C40
0C0CC0
080E80
080680
080780
180780
180300
380300
FE0100
ENDCHAR

STARTCHAR O
ENCODING 79
SWIDTH 778 0
DWIDTH 19 0
BBX 18 19 2 0
BITMAP
00FC00
038600
0E0300
1C0180
180180
3801C0
7001C0
7001C0
7001C0
E001C0
E00380
E00380
E00380
E00700
600600
600E00
301800
183000
07C000
ENDCHAR

STARTCHAR P
ENCODING 80
SWIDTH 667 0
DWIDTH 17 0
BBX 18 19 0 0
BITMAP
0FFE00
038380
038180
0381C0
0381C0
0301C0
0701C0
070380
070380
060F00
0FF800
0E0000
0E0000
0C0000
1C0000
1C0000
180000
380000
FF0000
ENDCHAR

STARTCHAR Q
ENCODING 81
SWIDTH 778 0
DWIDTH 19 0
BBX 18 24 2 -5
BITMAP
00FC00
038600
060300
0C0180
1C0180
3801C0
7801C0
7001C0
7001C0
F001C0
E003C0
E00380
E3C380
E46700
682700
783600
383C00
1C3000
07F000
007000
007000
007100
003A00
003C00
ENDCHAR

STARTCHAR R
ENCODING 82
SWIDTH 741 0
DWIDTH 19 0
BBX 18 19 0 0
BITMAP
1FFE00
038380
038180
0381C0
0301C0
0701C0
0701C0
070380
060F00
0FF000
0E1800
0E0C00
0C0C00
1C0C00
1C0C00
1C1C00
181C80
380C80
FF0F00
ENDCHAR

STARTCHAR S
ENCODING 83
SWIDTH 667 0
DWIDTH 17 0
BBX 16 19 1 0
BITMAP
03E0
061B
0C0E
1806
1806
1806
1C04
1F00
0FE0
03F0
00F8
003C
401C
400C
600C
600C
F018
D830
07C0
ENDCHAR

STARTCHAR T
ENCODING 84
SWIDTH 685 0
DWIDTH 17 0
BBX 18 19 2 0
BITMAP
3FFFC0
38E380
30E180
60C180
40C180
41C100
81C100
018000
018000
038000
038000
030000
070000
070000
070000
060000
0E0000
0E0000
7FC000
ENDCHAR

STARTCHAR U
ENCODING 85
SWIDTH 815 0
DWIDTH 20 0
BBX 19 19 4 0
BITMAP
FF0FE0
180380
380100
380100
380300
300200
700200
700200
600600
600400
E00400
E00400
C00400
C00800
C00800
E01000
E03000
706000
1F8000
ENDCHAR

STARTCHAR V
ENCODING 86
SWIDTH 704 0
DWIDTH 18 0
BBX 18 18 3 1
BITMAP
FE0FC0
700300
300200
300600
380400
380800
381800
181000
183000
182000
1C4000
1CC000
1C8000
1D0000
0D0000
0E0000
0E0000
0C0000
ENDCHAR

STARTCHAR W
ENCODING 87
SWIDTH 926 0
DWIDTH 23 0
BBX 23 18 3 1
BITMAP
FCFE3E
70380C
303808
303810
303810
306820
385820
38D840
3898C0
391880
391D80
3A1D00
3A1F00
1C1E00
1C1E00
181C00
180C00
100800
ENDCHAR

STARTCHAR X
ENCODING 88
SWIDTH 704 0
DWIDTH 18 0
BBX 21 19 -1 0
BITMAP
0FF3F8
03C0E0
01C0C0
01C180
00E100
00E200
006400
007800
003000
003800
007800
00D800
019C00
030C00
060E00
040E00
080600
3C0700
FF3FC0
ENDCHAR

STARTCHAR Y
ENCODING 89
SWIDTH 685 0
DWIDTH 17 0
BBX 17 19 3 0
BITMAP
FE1F80
380600
380400
180C00
1C0800
0C1000
0E2000
0E6000
06C000
078000
030000
070000
070000
070000
060000
0E0000
0E0000
0E0000
7F8000
ENDCHAR

STARTCHAR Z
ENCODING 90
SWIDTH 667 0
DWIDTH 17 0
BBX 17 19 1 0
BITMAP
07FF80
0F0700
0C0E00
081E00
181C00
103800
107000
00E000
01E000
01C000
038000
070000
0E0200
1E0600
1C0400
380C00
701C00
E07800
FFF800
ENDCHAR

STARTCHAR bracketleft
ENCODING 91
SWIDTH 333 0
DWIDTH 8 0
BBX 11 23 0 -4
BITMAP
03E0
0300
0600
0600
0600
0600
0C00
0C00
0C00
0C00
1800
1800
1800
3800
3000
3000
3000
7000
6000
6000
6000
E000
F800
ENDCHAR

STARTCHAR backslash
ENCODING 92
SWIDTH 606 0
DWIDTH 15 0
BBX 4 18 6 0
BITMAP
C0
C0
40
40
60
60
60
60
60
60
20
20
30
30
30
30
30
10
ENDCHAR

STARTCHAR bracketright
ENCODING 93
SWIDTH 333 0
DWIDTH 8 0
BBX 11 23 -2 -4
BITMAP
03E0
0060
00C0
00C0
00C0
00C0
0180
0180
0180
0180
0300
0300
0300
0300
0600
0600
0600
0C00
0C00
0C00
0C00
1800
F800
ENDCHAR

STARTCHAR asciicircum
ENCODING 94
SWIDTH 606 0
DWIDTH 15 0
BBX 11 9 3 8
BITMAP
0400
0600
0B00
1900
1180
3080
20C0
6060
C020
ENDCHAR

STARTCHAR underscore
ENCODING 95
SWIDTH 500 0
DWIDTH 13 0
BBX 13 1 0 -3
BITMAP
FFF8
ENDCHAR

STARTCHAR quoteleft
ENCODING 96
SWIDTH 204 0
DWIDTH 5 0
BBX 4 6 3 12
BITMAP
30
40
C0
E0
E0
60
ENDCHAR

STARTCHAR a
ENCODING 97
SWIDTH 574 0
DWIDTH 14 0
BBX 13 12 1 0
BITMAP
0F30
18B0
3070
6060
6060
C060
C040
C0C0
C0C8
C1C8
62D0
3CE0
ENDCHAR

STARTCHAR b
ENCODING 98
SWIDTH 556 0
DWIDTH 14 0
BBX 11 19 2 0
BITMAP
0C00
3C00
0C00
1800
1800
1800
3000
37C0
38C0
7060
7060
6060
6060
C0E0
C0C0
C0C0
C180
6300
3C00
ENDCHAR

STARTCHAR c
ENCODING 99
SWIDTH 444 0
DWIDTH 11 0
BBX 10 12 1 0
BITMAP
0780
18C0
31C0
61C0
6000
E000
C000
C000
C000
E080
6300
3C00
ENDCHAR

STARTCHAR d
ENCODING 100
SWIDTH 611 0
DWIDTH 15 0
BBX 14 19 1 0
BITMAP
001C
007C
0018
0018
0018
0018
0030
0F30
18B0
3060
6060
6060
E060
C0C0
C0C0
C1C8
C188
62D0
3CE0
ENDCHAR

STARTCHAR e
ENCODING 101
SWIDTH 444 0
DWIDTH 11 0
BBX 10 12 1 0
BITMAP
0780
18C0
30C0
60C0
6180
C700
F800
C000
C000
C080
6300
3C00
ENDCHAR

STARTCHAR f
ENCODING 102
SWIDTH 333 0
DWIDTH 8 0
BBX 12 23 -1 -4
BITMAP
0070
00B0
0130
0300
0300
0200
0600
1FC0
0600
0600
0C00
0C00
0C00
0C00
1800
1800
1800
1800
3000
3000
7000
6000
E000
ENDCHAR

STARTCHAR g
ENCODING 103
SWIDTH 537 0
DWIDTH 13 0
BBX 15 18 -1 -5
BITMAP
001E
03E6
0E30
1C18
1818
1818
1838
0470
1FC0
2000
3000
3FC0
1FF0
6030
C030
C020
60C0
3F00
ENDCHAR

STARTCHAR h
ENCODING 104
SWIDTH 611 0
DWIDTH 15 0
BBX 14 19 1 0
BITMAP
0700
1E00
0600
0600
0C00
0C00
0C00
19E0
1B30
1C30
1830
3830
3060
3060
6064
60C8
60C8
E0F0
0060
ENDCHAR

STARTCHAR i
ENCODING 105
SWIDTH 333 0
DWIDTH 8 0
BBX 6 18 2 0
BITMAP
08
1C
08
00
00
00
38
F0
30
30
30
60
60
60
C4
C8
D8
60
ENDCHAR

STARTCHAR j
ENCODING 106
SWIDTH 315 0
DWIDTH 8 0
BBX 10 23 -2 -5
BITMAP
00C0
01C0
0080
0000
0000
0000
0180
0780
0180
0100
0300
0300
0300
0200
0600
0600
0600
0600
0C00
0C00
C800
D800
E000
ENDCHAR

STARTCHAR k
ENCODING 107
SWIDTH 556 0
DWIDTH 14 0
BBX 12 19 1 0
BITMAP
0E00
3E00
0400
0C00
0C00
0C00
1800
19E0
1A30
3C30
3820
30C0
3700
6300
6100
6190
C1A0
C1E0
0080
ENDCHAR

STARTCHAR l
ENCODING 108
SWIDTH 333 0
DWIDTH 8 0
BBX 7 19 2 0
BITMAP
0E
3C
0C
0C
08
18
18
18
30
30
30
20
60
60
60
C4
C8
D0
E0
ENDCHAR

STARTCHAR m
ENCODING 109
SWIDTH 889 0
DWIDTH 22 0
BBX 20 12 2 0
BITMAP
78C180
3BE7C0
1468C0
3870C0
3060C0
30E180
60C180
60C190
61C320
618360
C183C0
000100
ENDCHAR

STARTCHAR n
ENCODING 110
SWIDTH 611 0
DWIDTH 15 0
BBX 13 12 2 0
BITMAP
F8C0
33E0
3460
3860
3060
70C0
60C0
60C8
C188
C190
C1E0
0080
ENDCHAR

STARTCHAR o
ENCODING 111
SWIDTH 500 0
DWIDTH 13 0
BBX 11 12 1 0
BITMAP
0F00
18C0
3060
6060
E060
E060
C0E0
C0E0
C0C0
4180
6300
1E00
ENDCHAR

STARTCHAR p
ENCODING 112
SWIDTH 574 0
DWIDTH 14 0
BBX 15 17 -2 -5
BITMAP
0F78
028C
0306
0706
0606
0606
0C0E
0C0C
0C0C
0C18
1A30
19E0
1800
1800
3000
3000
FC00
ENDCHAR

STARTCHAR q
ENCODING 113
SWIDTH 556 0
DWIDTH 14 0
BBX 12 17 1 -5
BITMAP
0710
18F0
3060
6060
6060
E060
C0C0
C0C0
C1C0
C180
6680
3D80
0180
0300
0300
0700
0FC0
ENDCHAR

STARTCHAR r
ENCODING 114
SWIDTH 444 0
DWIDTH 11 0
BBX 10 12 1 0
BITMAP
79C0
1AC0
1CC0
1400
3800
3800
3000
3000
6000
6000
6000
E000
ENDCHAR

STARTCHAR s
ENCODING 115
SWIDTH 444 0
DWIDTH 11 0
BBX 9 12 1 0
BITMAP
0F00
3180
2180
6180
7000
3E00
0F00
4380
E180
C180
C300
3C00
ENDCHAR

STARTCHAR t
ENCODING 116
SWIDTH 352 0
DWIDTH 9 0
BBX 7 16 2 0
BITMAP
0C
18
18
18
FE
30
30
30
60
60
60
E0
C4
C4
D8
70
ENDCHAR

STARTCHAR u
ENCODING 117
SWIDTH 611 0
DWIDTH 15 0
BBX 13 12 2 0
BITMAP
3800
F830
3060
3060
3060
60C0
60C0
61C0
C188
C390
CDB0
71C0
ENDCHAR

STARTCHAR v
ENCODING 118
SWIDTH 519 0
DWIDTH 13 0
BBX 10 12 2 0
BITMAP
F080
30C0
70C0
6040
6040
6040
C080
C080
C100
C100
6600
3800
ENDCHAR

STARTCHAR w
ENCODING 119
SWIDTH 778 0
DWIDTH 19 0
BBX 17 12 2 0
BITMAP
380100
F87180
306180
306080
30C080
60C080
60C100
61C100
C1C200
C2C200
C4CC00
787800
ENDCHAR

STARTCHAR x
ENCODING 120
SWIDTH 500 0
DWIDTH 13 0
BBX 13 12 0 0
BITMAP
0C30
1C78
2690
4680
0700
0600
0300
0700
0B10
CB20
F1E0
6180
ENDCHAR

STARTCHAR y
ENCODING 121
SWIDTH 500 0
DWIDTH 13 0
BBX 13 17 -1 -5
BITMAP
0C18
1E18
2618
2618
0310
0310
0320
0320
01C0
0180
0180
0100
0100
0200
C400
C800
F000
ENDCHAR

STARTCHAR z
ENCODING 122
SWIDTH 463 0
DWIDTH 12 0
BBX 12 12 0 0
BITMAP
0E10
1FB0
23E0
2040
0080
0300
0E00
1800
2020
7C40
BFC0
8700
ENDCHAR

STARTCHAR braceleft
ENCODING 123
SWIDTH 333 0
DWIDTH 8 0
BBX 10 24 2 -5
BITMAP
0040
0180
0200
0600
0C00
0C00
0C00
0C00
0C00
0800
1000
6000
C000
2000
3000
3000
7000
6000
6000
C000
C000
C000
6000
1000
ENDCHAR

STARTCHAR bar
ENCODING 124
SWIDTH 606 0
DWIDTH 15 0
BBX 2 23 8 -4
BITMAP
C0
C0
C0
C0
C0
C0
C0
C0
C0
C0
C0
C0
C0
C0
C0
C0
C0
C0
C0
C0
C0
C0
C0
ENDCHAR

STARTCHAR braceright
ENCODING 125
SWIDTH 333 0
DWIDTH 8 0
BBX 10 24 -2 -5
BITMAP
0200
0180
0080
00C0
00C0
01C0
0180
0380
0300
0300
0100
0080
01C0
0200
0600
0C00
0C00
0C00
0C00
0C00
0800
1000
6000
8000
ENDCHAR

STARTCHAR asciitilde
ENCODING 126
SWIDTH 606 0
DWIDTH 15 0
BBX 13 4 2 6
BITMAP
3808
7F08
83F8
8070
ENDCHAR

STARTCHAR space
ENCODING 160
SWIDTH 278 0
DWIDTH 9 0
BBX 0 0 0 0
BITMAP
ENDCHAR

STARTCHAR Aogonek
ENCODING 161
SWIDTH 704 0
DWIDTH 18 0
BBX 19 24 -1 -5
BITMAP
000C00
000C00
001C00
003C00
002C00
006C00
004C00
008C00
018E00
010E00
030E00
020E00
07FE00
0C0600
080600
100600
300700
700700
FC1FC0
000400
000400
000600
000700
0003E0
ENDCHAR

STARTCHAR afii240
ENCODING 162
SWIDTH 444 0
DWIDTH 11 0
BBX 14 11 -2 0
BITMAP
1FBC
0620
0640
0C80
0D80
0F80
0980
18C0
18C0
38E0
FDF8
ENDCHAR

STARTCHAR Rcommaaccent
ENCODING 163
SWIDTH 741 0
DWIDTH 19 0
BBX 18 24 0 -5
BITMAP
0FFE00
01C380
018180
0381C0
0381C0
0381C0
0301C0
070380
070F00
07F000
061800
0E0C00
0E0C00
0E0C00
0C0C00
1C0C00
1C0C80
1C0E80
FF8F00
000000
018000
018000
008000
030000
ENDCHAR

STARTCHAR currency
ENCODING 164
SWIDTH 606 0
DWIDTH 15 0
BBX 12 12 2 2
BITMAP
CF30
FFF0
70E0
6060
C030
C030
C030
C030
6060
70E0
FFF0
CF30
ENDCHAR

STARTCHAR Itilde
ENCODING 165
SWIDTH 407 0
DWIDTH 10 0
BBX 13 24 0 0
BITMAP
0388
07F8
0470
0000
0000
0FF0
01C0
0180
0180
0380
0380
0300
0300
0700
0700
0600
0600
0E00
0E00
0C00
0C00
1C00
1C00
FF80
ENDCHAR

STARTCHAR Lcommaaccent
ENCODING 166
SWIDTH 667 0
DWIDTH 17 0
BBX 16 24 0 -5
BITMAP
0FF8
0180
0380
0380
0380
0300
0700
0700
0700
0600
0E00
0E00
0E01
0C01
1C02
1C06
1C0E
3C1E
FFFC
0000
0300
0300
0100
0600
ENDCHAR

STARTCHAR section
ENCODING 167
SWIDTH 500 0
DWIDTH 13 0
BBX 12 24 1 -5
BITMAP
01E0
0230
0470
0420
0400
0600
0300
0700
0B80
1180
31C0
30C0
30C0
18C0
1880
0D00
0E00
0600
0300
0300
6300
E200
C600
7800
ENDCHAR

STARTCHAR hungarumlaut
ENCODING 168
SWIDTH 333 0
DWIDTH 8 0
BBX 9 5 3 13
BITMAP
1980
3B80
6300
C400
8800
ENDCHAR

STARTCHAR Scaron
ENCODING 169
SWIDTH 667 0
DWIDTH 17 0
BBX 16 24 1 0
BITMAP
031C
01B0
00E0
0040
0000
03E0
061B
0C0E
1806
1806
1806
1C04
1F00
0FC0
07F0
00F8
003C
401C
400C
600C
600C
F018
D830
07C0
ENDCHAR

STARTCHAR Emacron
ENCODING 170
SWIDTH 722 0
DWIDTH 18 0
BBX 18 23 1 0
BITMAP
01FE00
01FC00
000000
000000
1FFFC0
038380
030180
070080
070080
070980
060800
0E1000
0E3000
0FF000
0C7000
1C2000
1C2000
1C2100
180300
380200
380600
381E00
FFFC00
ENDCHAR

STARTCHAR Gcommaaccent
ENCODING 171
SWIDTH 778 0
DWIDTH 19 0
BBX 18 24 2 -5
BITMAP
00F800
038680
060380
1C0180
180180
380180
700080
700000
700000
E00000
E01FC0
E00700
E00600
E00600
600E00
700E00
301C00
1C3400
07C400
000000
030000
030000
030000
040000
ENDCHAR

STARTCHAR afii237
ENCODING 172
SWIDTH 556 0
DWIDTH 14 0
BBX 15 17 1 0
BITMAP
1FFE
31C6
2182
2182
0180
0300
0300
FFF8
0600
0600
0600
0E00
0C00
0C00
0C00
1C00
7F00
ENDCHAR

STARTCHAR hyphen
ENCODING 173
SWIDTH 333 0
DWIDTH 8 0
BBX 5 2 2 5
BITMAP
F8
F8
ENDCHAR

STARTCHAR Zcaron
ENCODING 174
SWIDTH 667 0
DWIDTH 17 0
BBX 17 25 1 0
BITMAP
008200
004C00
007800
003000
000000
000000
07FF80
0F0700
0C0E00
081E00
181C00
103800
107000
00E000
01E000
01C000
038000
070000
0E0200
1E0600
1C0400
380C00
701C00
E07800
FFF800
ENDCHAR

STARTCHAR macron
ENCODING 175
SWIDTH 333 0
DWIDTH 8 0
BBX 8 2 2 14
BITMAP
7F
FF
ENDCHAR

STARTCHAR degree
ENCODING 176
SWIDTH 400 0
DWIDTH 10 0
BBX 7 8 3 9
BITMAP
7C
C6
C2
82
82
C6
7C
38
ENDCHAR

STARTCHAR aogonek
ENCODING 177
SWIDTH 574 0
DWIDTH 14 0
BBX 13 17 1 -5
BITMAP
0F30
18B0
3060
6060
E060
C060
C0C0
C0C0
C1C8
C190
62F0
3CE0
0100
0100
0180
01C8
00F0
ENDCHAR

STARTCHAR ogonek
ENCODING 178
SWIDTH 333 0
DWIDTH 8 0
BBX 6 5 1 -5
BITMAP
40
80
C0
E0
7C
ENDCHAR

STARTCHAR rcommaaccent
ENCODING 179
SWIDTH 444 0
DWIDTH 11 0
BBX 9 17 2 -5
BITMAP
F380
3580
3980
3800
2800
3000
6000
6000
6000
E000
C000
C000
0000
6000
6000
2000
C000
ENDCHAR

STARTCHAR acute
ENCODING 180
SWIDTH 333 0
DWIDTH 8 0
BBX 6 5 4 13
BITMAP
0C
1C
30
E0
40
ENDCHAR

STARTCHAR itilde
ENCODING 181
SWIDTH 333 0
DWIDTH 8 0
BBX 8 17 2 0
BITMAP
71
FF
8E
00
00
F8
30
30
30
60
60
60
60
C4
C8
D8
60
ENDCHAR

STARTCHAR lcommaaccent
ENCODING 182
SWIDTH 333 0
DWIDTH 8 0
BBX 8 24 1 -5
BITMAP
03
1E
06
06
0C
0C
0C
0C
18
18
18
30
30
30
30
62
64
68
70
00
60
60
20
C0
ENDCHAR

STARTCHAR caron
ENCODING 183
SWIDTH 333 0
DWIDTH 8 0
BBX 7 4 3 14
BITMAP
82
CC
78
70
ENDCHAR

STARTCHAR commaaccent
ENCODING 184
SWIDTH 333 0
DWIDTH 8 0
BBX 3 4 2 -5
BITMAP
60
60
20
C0
ENDCHAR

STARTCHAR scaron
ENCODING 185
SWIDTH 444 0
DWIDTH 11 0
BBX 11 18 0 0
BITMAP
1020
08C0
0780
0700
0000
0000
0F80
10C0
20C0
20C0
3800
3E00
0F80
4180
E180
C180
4300
3C00
ENDCHAR

STARTCHAR emacron
ENCODING 186
SWIDTH 444 0
DWIDTH 11 0
BBX 11 16 1 0
BITMAP
1FE0
1FE0
0000
0000
0780
18C0
30C0
60C0
6180
C300
FC00
C000
C000
C080
6300
3C00
ENDCHAR

STARTCHAR gcommaaccent
ENCODING 187
SWIDTH 537 0
DWIDTH 13 0
BBX 15 23 -1 -5
BITMAP
0030
0040
0060
0020
0000
000C
03F6
0E30
0C18
1818
1818
1838
0470
1FC0
2000
3000
3FC0
1FE0
6030
C030
C020
60C0
1F00
ENDCHAR

STARTCHAR afii253
ENCODING 188
SWIDTH 278 0
DWIDTH 7 0
BBX 6 14 1 0
BITMAP
0C
08
18
7C
30
30
FC
60
60
60
C0
C8
F0
40
ENDCHAR

STARTCHAR afii238
ENCODING 189
SWIDTH 685 0
DWIDTH 17 0
BBX 18 17 -1 0
BITMAP
078F00
01B380
01C180
0341C0
0381C0
0301C0
0701C0
0601C0
0601C0
060180
0C0180
0C6380
0CE300
1CE200
188600
188C00
FE7000
ENDCHAR

STARTCHAR zcaron
ENCODING 190
SWIDTH 463 0
DWIDTH 12 0
BBX 12 18 0 0
BITMAP
0C30
06C0
0380
0100
0000
0000
0E10
1FE0
2020
20C0
0180
0600
1C00
3000
2020
7C40
9F80
8700
ENDCHAR

STARTCHAR afii254
ENCODING 191
SWIDTH 482 0
DWIDTH 12 0
BBX 11 16 0 -5
BITMAP
78E0
1B60
3460
3460
38C0
30C0
60C0
6180
6180
C180
C300
0300
0300
0600
6400
3800
ENDCHAR

STARTCHAR Amacron
ENCODING 192
SWIDTH 704 0
DWIDTH 18 0
BBX 18 22 -1 0
BITMAP
003F80
003F80
000000
000400
000C00
001C00
001C00
002C00
002C00
004E00
00CE00
008E00
010E00
010E00
020600
07FE00
040700
080700
180700
100700
380700
FE1FC0
ENDCHAR

STARTCHAR Aacute
ENCODING 193
SWIDTH 704 0
DWIDTH 18 0
BBX 18 25 -1 0
BITMAP
000180
000380
000700
000C00
000800
000000
000400
000C00
001C00
001C00
002C00
002C00
004E00
00CE00
008E00
010E00
030E00
020600
07FE00
040700
080700
180700
100700
380700
FE1FC0
ENDCHAR

STARTCHAR Acircumflex
ENCODING 194
SWIDTH 704 0
DWIDTH 18 0
BBX 18 25 -1 0
BITMAP
000400
000E00
001A00
006180
000000
000000
000400
000C00
001C00
001C00
002C00
002C00
004E00
00CE00
008E00
010E00
030E00
020600
07FE00
040700
080700
180700
100700
380700
FE1FC0
ENDCHAR

STARTCHAR Atilde
ENCODING 195
SWIDTH 704 0
DWIDTH 18 0
BBX 18 24 -1 0
BITMAP
003C40
003F80
004300
000000
000000
000400
000C00
001C00
001C00
002C00
002C00
004E00
00CE00
008E00
010E00
030E00
020600
07FE00
040700
080700
180700
100700
380700
FE1FC0
ENDCHAR

STARTCHAR Adieresis
ENCODING 196
SWIDTH 704 0
DWIDTH 18 0
BBX 19 24 -1 0
BITMAP
001080
0039C0
001080
000000
000000
000400
000C00
000E00
001E00
001600
002E00
006E00
004E00
008600
018600
010700
020700
03FF00
040700
0C0700
080300
180300
380380
FE1FE0
ENDCHAR

STARTCHAR Aring
ENCODING 197
SWIDTH 704 0
DWIDTH 18 0
BBX 18 25 -1 0
BITMAP
000E00
001100
001100
001100
000E00
000000
000400
000C00
001C00
001C00
002C00
006C00
004C00
00CE00
008E00
010E00
030E00
020600
07FE00
040600
080700
180700
100700
380700
FE1FC0
ENDCHAR

STARTCHAR AE
ENCODING 198
SWIDTH 870 0
DWIDTH 22 0
BBX 25 19 -1 0
BITMAP
003FFF80
00058380
000B8180
001B8180
00130100
00270900
00471000
00C61000
008E3000
010FF000
020E6000
03FC2000
041C2200
081C2200
181C0600
10180400
20380C00
60383C00
F9FFFC00
ENDCHAR

STARTCHAR Iogonek
ENCODING 199
SWIDTH 407 0
DWIDTH 10 0
BBX 12 24 1 -5
BITMAP
0FF0
0380
0380
0380
0300
0300
0700
0700
0600
0600
0E00
0E00
0C00
0C00
1C00
1C00
1800
3800
FF00
2000
2000
3000
3800
1F00
ENDCHAR

STARTCHAR Ccaron
ENCODING 200
SWIDTH 722 0
DWIDTH 18 0
BBX 17 24 2 0
BITMAP
018600
00D800
007000
002000
000000
01F000
070D80
0E0700
1C0300
380300
380300
700100
700100
700000
E00000
E00000
E00000
E00000
E00200
600400
700400
300800
1C3000
07C000
ENDCHAR

STARTCHAR Eacute
ENCODING 201
SWIDTH 722 0
DWIDTH 18 0
BBX 18 25 1 0
BITMAP
000C00
001C00
003000
006000
000000
000000
1FFFC0
038380
030180
070080
070080
070980
060800
0E1000
0E3000
0FF000
0C7000
1C2000
1C2000
1C2100
180300
380200
380600
381E00
FFFC00
ENDCHAR

STARTCHAR Eogonek
ENCODING 202
SWIDTH 722 0
DWIDTH 18 0
BBX 18 24 1 -5
BITMAP
1FFFC0
0381C0
038180
030080
070080
070880
070800
061800
0E3000
0FF000
0E7000
0C2000
1C2000
1C2100
1C0300
180200
380600
381E00
FFFC00
002000
002000
003000
003800
001F00
ENDCHAR

STARTCHAR Edieresis
ENCODING 203
SWIDTH 722 0
DWIDTH 18 0
BBX 18 24 1 0
BITMAP
008400
01CE00
008400
000000
000000
1FFFC0
0381C0
0380C0
030080
070080
070880
070800
061800
0E3000
0FF000
0E3000
0C3000
1C2000
1C2180
1C0100
180300
380600
381E00
FFFE00
ENDCHAR

STARTCHAR Edotaccent
ENCODING 204
SWIDTH 722 0
DWIDTH 18 0
BBX 18 24 0 0
BITMAP
000800
001C00
000800
000000
000000
0FFFC0
0181C0
0380C0
0380C0
038080
030480
070800
070800
061800
07F000
0E3000
0E1000
0E1000
0C2180
1C0100
1C0300
1C0700
3C0E00
FFFE00
ENDCHAR

STARTCHAR Iacute
ENCODING 205
SWIDTH 407 0
DWIDTH 10 0
BBX 12 25 0 0
BITMAP
0030
0060
00C0
0100
0000
0000
0FF0
01C0
0180
0180
0380
0380
0300
0300
0700
0700
0600
0600
0E00
0E00
0C00
0C00
1C00
1C00
FF80
ENDCHAR

STARTCHAR Icircumflex
ENCODING 206
SWIDTH 407 0
DWIDTH 10 0
BBX 12 25 0 0
BITMAP
00C0
01E0
0320
0610
0000
0000
0FF0
01C0
0180
0180
0380
0380
0300
0300
0700
0700
0600
0600
0E00
0E00
0C00
0C00
1C00
1C00
FF80
ENDCHAR

STARTCHAR Imacron
ENCODING 207
SWIDTH 407 0
DWIDTH 10 0
BBX 13 23 0 0
BITMAP
07F8
07F8
0000
0000
0FF0
01C0
0180
0180
0380
0380
0300
0300
0700
0700
0600
0600
0E00
0E00
0C00
0C00
1C00
1C00
FF80
ENDCHAR

STARTCHAR Eth
ENCODING 208
SWIDTH 778 0
DWIDTH 19 0
BBX 20 19 0 0
BITMAP
0FFF00
01C180
01C0C0
018060
038070
038070
038070
030070
070070
3FE070
070070
0600E0
0E00E0
0E00E0
0C01C0
0C0380
1C0700
1C0E00
FFF800
ENDCHAR

STARTCHAR Ncommaaccent
ENCODING 209
SWIDTH 815 0
DWIDTH 20 0
BBX 23 24 0 -5
BITMAP
0FC0FE
03C038
01E010
036030
026020
027020
027020
063860
043840
041C40
041C40
0C0CC0
080E80
080680
080780
180780
180300
380300
FE0100
000000
00C000
00C000
004000
018000
ENDCHAR

STARTCHAR Omacron
ENCODING 210
SWIDTH 778 0
DWIDTH 19 0
BBX 18 22 2 0
BITMAP
00FF00
00FE00
000000
00F800
030600
0E0300
1C0180
180180
3801C0
7001C0
7001C0
7001C0
E001C0
E00380
E00380
E00380
E00700
600600
600E00
301800
183000
07C000
ENDCHAR

STARTCHAR Kcommaaccent
ENCODING 211
SWIDTH 741 0
DWIDTH 19 0
BBX 21 24 0 -5
BITMAP
0FF3F8
0380E0
038080
038300
030600
070C00
071800
072000
067000
0FB000
0F3800
0E3800
0C1800
1C1C00
1C0C00
180E00
180600
380F00
FF3FC0
000000
018000
018000
008000
030000
ENDCHAR

STARTCHAR Ocircumflex
ENCODING 212
SWIDTH 778 0
DWIDTH 19 0
BBX 18 24 2 0
BITMAP
001800
003400
004600
008200
000000
00FC00
030600
0E0300
1C0180
180180
3801C0
7001C0
7001C0
7001C0
E001C0
E00380
E00380
E00380
E00700
600600
600E00
301800
183000
07C000
ENDCHAR

STARTCHAR Otilde
ENCODING 213
SWIDTH 778 0
DWIDTH 19 0
BBX 18 24 2 0
BITMAP
00E200
01FE00
011C00
000000
000000
00FC00
030600
0E0300
1C0180
180180
3801C0
7001C0
7001C0
7001C0
E001C0
E00380
E00380
E00380
E00700
600600
600E00
301800
183000
07C000
ENDCHAR

STARTCHAR Odieresis
ENCODING 214
SWIDTH 778 0
DWIDTH 19 0
BBX 18 24 2 0
BITMAP
004200
00E700
004200
000000
000000
00F800
030600
0E0300
1C0180
180180
3801C0
7001C0
7001C0
7001C0
E001C0
E00380
E00380
E00380
E00700
600E00
600E00
301800
187000
07C000
ENDCHAR

STARTCHAR multiply
ENCODING 215
SWIDTH 606 0
DWIDTH 15 0
BBX 12 13 3 2
BITMAP
8010
C030
6060
30C0
1980
0F00
0600
0F00
1980
30C0
6060
C030
8010
ENDCHAR

STARTCHAR Oslash
ENCODING 216
SWIDTH 778 0
DWIDTH 19 0
BBX 18 19 2 0
BITMAP
00F880
038700
0E0380
1C0680
1805C0
3809C0
7011C0
7021C0
7041C0
E081C0
E10380
E30380
E60380
EC0700
680600
700E00
301800
583000
CFC000
ENDCHAR

STARTCHAR Uogonek
ENCODING 217
SWIDTH 815 0
DWIDTH 20 0
BBX 19 24 4 -5
BITMAP
FF0FE0
380380
380300
300200
300200
300200
700200
600400
600400
600400
E00400
E00800
C00800
C00800
C01800
C01000
E02000
70C000
3F8000
080000
080000
0C0000
0E4000
078000
ENDCHAR

STARTCHAR Uacute
ENCODING 218
SWIDTH 815 0
DWIDTH 20 0
BBX 19 25 4 0
BITMAP
000C00
001C00
003000
006000
000000
000000
FF0FE0
180380
380100
380100
380300
300200
700200
700200
600600
600400
E00400
E00400
C00400
C00800
C00800
E01000
E03000
706000
1F8000
ENDCHAR

STARTCHAR Ucircumflex
ENCODING 219
SWIDTH 815 0
DWIDTH 20 0
BBX 19 25 4 0
BITMAP
003000
007800
004800
018400
000000
000000
FF0FE0
180380
380100
380100
380300
300200
700200
700200
600600
600400
E00400
E00400
C00400
C00800
C00800
E01000
E03000
706000
1F8000
ENDCHAR

STARTCHAR Udieresis
ENCODING 220
SWIDTH 815 0
DWIDTH 20 0
BBX 19 24 4 0
BITMAP
008400
01CE00
008400
000000
000000
FF0FE0
380380
380300
380300
300200
300200
700200
700600
600400
600400
E00400
E00C00
C00800
C00800
C01800
C01000
E02000
70C000
1F8000
ENDCHAR

STARTCHAR Utilde
ENCODING 221
SWIDTH 815 0
DWIDTH 20 0
BBX 19 24 4 0
BITMAP
00E200
01FE00
011C00
000000
000000
FF0FE0
180380
380100
380100
380300
300200
700200
700200
600600
600400
E00400
E00400
C00400
C00800
C00800
E01000
E03000
706000
1F8000
ENDCHAR

STARTCHAR Umacron
ENCODING 222
SWIDTH 815 0
DWIDTH 20 0
BBX 19 23 4 0
BITMAP
00FE00
01FE00
000000
000000
FF0FE0
180380
380100
380100
380300
300200
700200
700200
600600
600400
E00400
E00400
C00400
C00800
C00800
E01000
E03000
706000
1F8000
ENDCHAR

STARTCHAR germandbls
ENCODING 223
SWIDTH 556 0
DWIDTH 14 0
BBX 16 24 -1 -5
BITMAP
003C
00C6
0183
0183
0303
0307
0606
060C
0670
0C18
0C0C
0C0C
0C0C
180C
181C
1B18
1B38
3270
31C0
3000
6000
6000
E000
8000
ENDCHAR

STARTCHAR amacron
ENCODING 224
SWIDTH 574 0
DWIDTH 14 0
BBX 13 16 1 0
BITMAP
07F8
07F0
0000
0000
0F30
18B0
3070
6060
6060
C060
C040
C0C0
C0C8
C1C8
62D0
3CE0
ENDCHAR

STARTCHAR aacute
ENCODING 225
SWIDTH 574 0
DWIDTH 14 0
BBX 13 18 1 0
BITMAP
0030
0070
00C0
0180
0000
0000
0F30
18B0
3070
6060
6060
C060
C040
C0C0
C0C8
C1C8
62D0
3CE0
ENDCHAR

STARTCHAR acircumflex
ENCODING 226
SWIDTH 574 0
DWIDTH 14 0
BBX 13 18 1 0
BITMAP
0080
01C0
0360
0C30
0000
0000
0F30
18B0
3070
6060
6060
C060
C040
C0C0
C0C8
C1C8
62D0
3CE0
ENDCHAR

STARTCHAR atilde
ENCODING 227
SWIDTH 574 0
DWIDTH 14 0
BBX 13 17 1 0
BITMAP
0388
07F0
0860
0000
0000
0F30
18B0
3070
6060
6060
C060
C040
C0C0
C0C8
C1C8
62D0
3CE0
ENDCHAR

STARTCHAR adieresis
ENCODING 228
SWIDTH 574 0
DWIDTH 14 0
BBX 14 17 1 0
BITMAP
0210
0738
0210
0000
0000
0F98
18F0
3070
6070
6060
E060
C060
C0E0
C0C4
E1C8
63D0
3C60
ENDCHAR

STARTCHAR aring
ENCODING 229
SWIDTH 574 0
DWIDTH 14 0
BBX 13 19 1 0
BITMAP
01C0
0360
0220
0220
0360
01C0
0000
0F30
18B0
3060
6060
E060
C060
C0C0
C0C0
C0C8
C190
62F0
3CE0
ENDCHAR

STARTCHAR ae
ENCODING 230
SWIDTH 722 0
DWIDTH 18 0
BBX 17 12 1 0
BITMAP
0F2F00
18F180
306180
60E180
60C300
C0C600
C0F800
C0C000
C1C000
C3C100
66E200
383C00
ENDCHAR

STARTCHAR iogonek
ENCODING 231
SWIDTH 333 0
DWIDTH 8 0
BBX 6 23 2 -5
BITMAP
18
1C
08
00
00
00
38
F0
30
30
30
60
60
60
C4
C8
D8
70
80
80
C0
E4
78
ENDCHAR

STARTCHAR ccaron
ENCODING 232
SWIDTH 444 0
DWIDTH 11 0
BBX 11 18 1 0
BITMAP
1020
08C0
0780
0700
0000
0000
0780
18C0
31C0
61C0
6000
E000
C000
C000
C000
E080
6300
3C00
ENDCHAR

STARTCHAR eacute
ENCODING 233
SWIDTH 444 0
DWIDTH 11 0
BBX 11 18 1 0
BITMAP
0060
00C0
0180
0200
0400
0000
0780
18C0
30C0
60C0
6180
C300
FC00
C000
C000
C080
6300
3C00
ENDCHAR

STARTCHAR eogonek
ENCODING 234
SWIDTH 444 0
DWIDTH 11 0
BBX 10 17 1 -5
BITMAP
0780
18C0
30C0
60C0
6180
C700
F800
C000
C000
C080
6300
3C00
1000
1000
1800
1C80
0F00
ENDCHAR

STARTCHAR edieresis
ENCODING 235
SWIDTH 444 0
DWIDTH 11 0
BBX 11 17 1 0
BITMAP
0840
1CE0
0840
0000
0000
0780
18C0
30C0
60C0
6180
C700
F800
C000
C000
C080
6300
3C00
ENDCHAR

STARTCHAR edotaccent
ENCODING 236
SWIDTH 444 0
DWIDTH 11 0
BBX 9 17 1 0
BITMAP
0200
0700
0200
0000
0000
0F00
1180
3180
6180
6300
C600
F800
C000
C000
C100
6200
3C00
ENDCHAR

STARTCHAR iacute
ENCODING 237
SWIDTH 333 0
DWIDTH 8 0
BBX 9 18 2 0
BITMAP
0180
0300
0600
0C00
1000
0000
3800
F000
3000
3000
3000
6000
6000
6000
C400
C800
D800
6000
ENDCHAR

STARTCHAR icircumflex
ENCODING 238
SWIDTH 333 0
DWIDTH 8 0
BBX 8 18 2 0
BITMAP
0C
1C
36
63
00
00
38
F0
30
30
30
60
60
60
C4
C8
D8
60
ENDCHAR

STARTCHAR imacron
ENCODING 239
SWIDTH 333 0
DWIDTH 8 0
BBX 9 15 2 0
BITMAP
7F80
7F80
0000
3800
F000
3000
3000
3000
6000
6000
6000
C400
C800
D800
6000
ENDCHAR

STARTCHAR dcroat
ENCODING 240
SWIDTH 611 0
DWIDTH 15 0
BBX 15 19 1 0
BITMAP
007C
001C
0018
0018
01FE
0018
0030
0F30
18B0
3060
6060
6060
E060
C0C0
C0C0
C1C8
C188
62D0
3CE0
ENDCHAR

STARTCHAR ncommaaccent
ENCODING 241
SWIDTH 611 0
DWIDTH 15 0
BBX 14 17 1 -5
BITMAP
7CE0
1B30
1A30
1430
3830
3060
3060
3060
60C4
60C8
60D0
C060
0000
0C00
0C00
0400
1800
ENDCHAR

STARTCHAR omacron
ENCODING 242
SWIDTH 500 0
DWIDTH 13 0
BBX 12 16 1 0
BITMAP
0FF0
0FE0
0000
0000
0F80
18C0
3060
6060
E060
E060
C0E0
C0E0
C0C0
4180
6300
1E00
ENDCHAR

STARTCHAR kcommaaccent
ENCODING 243
SWIDTH 556 0
DWIDTH 14 0
BBX 12 24 1 -5
BITMAP
0200
3E00
0600
0C00
0C00
0C00
1800
19E0
1A30
1430
3830
3860
3180
7600
6100
6190
6190
C1A0
C1C0
0000
1800
1800
0800
3000
ENDCHAR

STARTCHAR ocircumflex
ENCODING 244
SWIDTH 500 0
DWIDTH 13 0
BBX 11 18 1 0
BITMAP
0100
0380
06C0
1860
0000
0000
0F00
18C0
3060
6060
E060
E060
C0E0
C0E0
C0C0
4180
6300
1E00
ENDCHAR

STARTCHAR otilde
ENCODING 245
SWIDTH 500 0
DWIDTH 13 0
BBX 12 17 1 0
BITMAP
0F10
0FE0
10E0
0000
0000
0F00
18C0
3060
6060
E060
E060
C0E0
C0E0
C0C0
4180
6300
1E00
ENDCHAR

STARTCHAR odieresis
ENCODING 246
SWIDTH 500 0
DWIDTH 13 0
BBX 12 17 1 0
BITMAP
0420
0E70
0420
0000
0000
0F80
18C0
3060
6060
E060
E060
C060
C0E0
C0C0
4180
6300
1E00
ENDCHAR

STARTCHAR divide
ENCODING 247
SWIDTH 606 0
DWIDTH 15 0
BBX 14 12 2 2
BITMAP
0300
0300
0000
0000
0000
FFFC
FFFC
0000
0000
0000
0300
0300
ENDCHAR

STARTCHAR oslash
ENCODING 248
SWIDTH 500 0
DWIDTH 13 0
BBX 11 12 1 0
BITMAP
0FA0
18C0
30E0
6160
E260
E460
C8E0
C8E0
D0C0
E180
6300
9E00
ENDCHAR

STARTCHAR uogonek
ENCODING 249
SWIDTH 611 0
DWIDTH 15 0
BBX 13 17 2 -5
BITMAP
3800
F030
3030
3060
2060
60E0
60C0
61C0
C1C8
C290
CD90
71E0
0100
0300
0300
0388
01F0
ENDCHAR

STARTCHAR uacute
ENCODING 250
SWIDTH 611 0
DWIDTH 15 0
BBX 13 18 2 0
BITMAP
0030
0070
00E0
0080
0100
0000
F830
3830
3060
3060
7060
60C0
60C0
C1C0
C188
C390
CDA0
71C0
ENDCHAR

STARTCHAR ucircumflex
ENCODING 251
SWIDTH 611 0
DWIDTH 15 0
BBX 13 18 2 0
BITMAP
0080
01C0
0340
0C30
0000
0000
F830
3830
3060
3060
7060
60C0
60C0
C1C0
C188
C390
CDA0
71C0
ENDCHAR

STARTCHAR udieresis
ENCODING 252
SWIDTH 611 0
DWIDTH 15 0
BBX 13 17 2 0
BITMAP
0210
0738
0210
0000
0000
F830
3830
3030
3060
7060
60E0
60C0
C1C0
C1C8
C388
CD90
70E0
ENDCHAR

STARTCHAR utilde
ENCODING 253
SWIDTH 611 0
DWIDTH 15 0
BBX 13 17 2 0
BITMAP
0710
0FF0
08E0
0000
0000
F830
3030
3060
3060
6060
60C0
60C0
C1C0
C188
C390
CDA0
70C0
ENDCHAR

STARTCHAR umacron
ENCODING 254
SWIDTH 611 0
DWIDTH 15 0
BBX 13 16 2 0
BITMAP
07F8
07F0
0000
0000
F830
3830
3060
3060
7060
60C0
60C0
C1C0
C188
C390
CDA0
71C0
ENDCHAR

STARTCHAR dotaccent
ENCODING 255
SWIDTH 333 0
DWIDTH 8 0
BBX 3 3 5 14
BITMAP
40
E0
40
ENDCHAR
ENDFONT
